<svg width="11" height="7" viewBox="0 0 11 7" fill="none" xmlns="http://www.w3.org/2000/svg">
<path fill-rule="evenodd" clip-rule="evenodd" d="M0.612982 0.920111C0.648705 0.884297 0.691143 0.855883 0.737865 0.836495C0.784586 0.817108 0.834673 0.807129 0.885258 0.807129C0.935842 0.807129 0.985929 0.817108 1.03265 0.836495C1.07937 0.855883 1.12181 0.884297 1.15753 0.920111L5.5001 5.26345L9.84267 0.920111C9.87842 0.884355 9.92087 0.855992 9.96759 0.836641C10.0143 0.81729 10.0644 0.80733 10.1149 0.80733C10.1655 0.80733 10.2156 0.81729 10.2623 0.836641C10.309 0.855992 10.3515 0.884355 10.3872 0.920111C10.423 0.955866 10.4513 0.998315 10.4707 1.04503C10.49 1.09175 10.5 1.14182 10.5 1.19239C10.5 1.24295 10.49 1.29302 10.4707 1.33974C10.4513 1.38646 10.423 1.42891 10.3872 1.46466L5.77238 6.07951C5.73665 6.11532 5.69422 6.14373 5.64749 6.16312C5.60077 6.18251 5.55068 6.19249 5.5001 6.19249C5.44952 6.19249 5.39943 6.18251 5.35271 6.16312C5.30599 6.14373 5.26355 6.11532 5.22783 6.07951L0.612982 1.46466C0.577168 1.42894 0.548754 1.3865 0.529367 1.33978C0.509979 1.29306 0.5 1.24297 0.5 1.19239C0.5 1.1418 0.509979 1.09171 0.529367 1.04499C0.548754 0.998272 0.577168 0.955834 0.612982 0.920111Z" fill="#1F2125" stroke="#1F2125" stroke-width="0.6"/>
</svg>
