<svg width="15" height="19" viewBox="0 0 15 19" fill="none" xmlns="http://www.w3.org/2000/svg">
<path d="M7.49992 0.666679C10.2583 0.666679 12.4999 2.88335 12.4999 5.62501C12.4999 9.34168 7.49992 14.8333 7.49992 14.8333C7.49992 14.8333 2.49992 9.34168 2.49992 5.62501C2.49992 2.88335 4.74159 0.666679 7.49992 0.666679ZM7.49992 4.00001C7.05789 4.00001 6.63397 4.17561 6.32141 4.48817C6.00885 4.80073 5.83325 5.22465 5.83325 5.66668C5.83325 6.10871 6.00885 6.53263 6.32141 6.84519C6.63397 7.15775 7.05789 7.33335 7.49992 7.33335C7.94195 7.33335 8.36587 7.15775 8.67843 6.84519C8.99099 6.53263 9.16659 6.10871 9.16659 5.66668C9.16659 5.22465 8.99099 4.80073 8.67843 4.48817C8.36587 4.17561 7.94195 4.00001 7.49992 4.00001ZM14.1666 14.8333C14.1666 16.675 11.1833 18.1667 7.49992 18.1667C3.81659 18.1667 0.833252 16.675 0.833252 14.8333C0.833252 13.7583 1.84992 12.8 3.42492 12.1917L3.95825 12.95C3.05825 13.325 2.49992 13.8417 2.49992 14.4167C2.49992 15.5667 4.74159 16.5 7.49992 16.5C10.2583 16.5 12.4999 15.5667 12.4999 14.4167C12.4999 13.8417 11.9416 13.325 11.0416 12.95L11.5749 12.1917C13.1499 12.8 14.1666 13.7583 14.1666 14.8333Z" fill="#1F2125"/>
</svg>
