<svg width="17" height="16" viewBox="0 0 17 16" fill="none" xmlns="http://www.w3.org/2000/svg">
<path d="M3.5 5.8125C3.5 5.56386 3.59877 5.3254 3.77459 5.14959C3.9504 4.97377 4.18886 4.875 4.4375 4.875H12.5625C12.8111 4.875 13.0496 4.97377 13.2254 5.14959C13.4012 5.3254 13.5 5.56386 13.5 5.8125C13.5 6.06114 13.4012 6.2996 13.2254 6.47541C13.0496 6.65123 12.8111 6.75 12.5625 6.75H4.4375C4.18886 6.75 3.9504 6.65123 3.77459 6.47541C3.59877 6.2996 3.5 6.06114 3.5 5.8125ZM4.4375 9.875H12.5625C12.8111 9.875 13.0496 9.77623 13.2254 9.60041C13.4012 9.4246 13.5 9.18614 13.5 8.9375C13.5 8.68886 13.4012 8.4504 13.2254 8.27459C13.0496 8.09877 12.8111 8 12.5625 8H4.4375C4.18886 8 3.9504 8.09877 3.77459 8.27459C3.59877 8.4504 3.5 8.68886 3.5 8.9375C3.5 9.18614 3.59877 9.4246 3.77459 9.60041C3.9504 9.77623 4.18886 9.875 4.4375 9.875ZM16.9375 2.375V14.25C16.9375 14.4098 16.8966 14.5669 16.8188 14.7065C16.741 14.8461 16.6288 14.9634 16.4929 15.0474C16.357 15.1315 16.2018 15.1793 16.0422 15.1865C15.8825 15.1937 15.7237 15.16 15.5808 15.0885L13.5 14.0482L11.4192 15.0885C11.2891 15.1536 11.1455 15.1875 11 15.1875C10.8545 15.1875 10.7109 15.1536 10.5808 15.0885L8.5 14.0482L6.41922 15.0885C6.28906 15.1536 6.14553 15.1875 6 15.1875C5.85447 15.1875 5.71094 15.1536 5.58078 15.0885L3.5 14.0482L1.41922 15.0885C1.27629 15.16 1.11747 15.1937 0.957832 15.1865C0.798198 15.1793 0.64305 15.1315 0.50712 15.0474C0.37119 14.9634 0.25899 14.8461 0.181173 14.7065C0.103356 14.5669 0.0625054 14.4098 0.0625 14.25V2.375C0.0629756 1.96075 0.227748 1.56359 0.520671 1.27067C0.813594 0.977748 1.21075 0.812976 1.625 0.8125H15.375C15.7893 0.812976 16.1864 0.977748 16.4793 1.27067C16.7723 1.56359 16.937 1.96075 16.9375 2.375ZM15.0625 2.6875H1.9375V12.733L3.08078 12.1615C3.21094 12.0964 3.35447 12.0625 3.5 12.0625C3.64553 12.0625 3.78906 12.0964 3.91922 12.1615L6 13.2018L8.08078 12.1615C8.21094 12.0964 8.35447 12.0625 8.5 12.0625C8.64553 12.0625 8.78906 12.0964 8.91922 12.1615L11 13.2018L13.0808 12.1615C13.2109 12.0964 13.3545 12.0625 13.5 12.0625C13.6455 12.0625 13.7891 12.0964 13.9192 12.1615L15.0625 12.733V2.6875Z" fill="#1F2125"/>
</svg>
