<svg width="15" height="10" viewBox="0 0 15 10" fill="none" xmlns="http://www.w3.org/2000/svg">
<path d="M7.36609 8.24892C5.54849 8.24892 4.06762 6.79051 4.06762 4.99131C4.06762 3.19212 5.54849 1.73371 7.36609 1.73371C9.18369 1.73371 10.6646 3.19212 10.6646 4.99131C10.6646 6.79051 9.18369 8.24892 7.36609 8.24892ZM14.9044 4.67618C12.9528 1.67508 10.3202 0.0224609 7.50002 0.0224609C4.67987 0.0224609 2.04721 1.67508 0.0956832 4.67618C-0.0305923 4.87039 -0.0305923 5.1159 0.0956832 5.31011C2.04721 8.31121 4.67987 9.96383 7.50002 9.96383C10.3202 9.96383 12.949 8.31121 14.9044 5.31011C15.0306 5.1159 15.0306 4.87039 14.9044 4.67618Z" fill="white"/>
</svg>
